<svg width="120" height="26" viewBox="0 0 120 26" fill="none" xmlns="http://www.w3.org/2000/svg">
<path fill-rule="evenodd" clip-rule="evenodd" d="M63.8419 19.1579C62.0127 19.1579 60.523 18.601 59.3727 17.4871C58.2225 16.3732 57.6473 14.9535 57.6473 13.2281C57.6473 11.5791 58.2365 10.1785 59.4148 9.02641C60.5931 7.87429 62.0632 7.29824 63.8251 7.29824C64.8463 7.29824 65.7103 7.42656 66.4173 7.68319C67.1243 7.93982 67.8032 8.33569 68.4541 8.87079L66.8213 10.7873C66.3276 10.3833 65.8506 10.0884 65.3905 9.90278C64.9304 9.71713 64.3805 9.62431 63.7409 9.62431C62.7982 9.62431 61.9987 9.97649 61.3422 10.6809C60.6857 11.3852 60.3575 12.2343 60.3575 13.2281C60.3575 14.2764 60.6913 15.1446 61.359 15.8326C62.0267 16.5206 62.8824 16.8646 63.9261 16.8646C64.8911 16.8646 65.7047 16.6353 66.3668 16.1766V14.5385H63.7577V12.3599H68.875V17.3396C67.4049 18.5518 65.7272 19.1579 63.8419 19.1579ZM36.6778 7.41291L31.6279 18.9613H34.2707L35.348 16.3896H40.3306L41.4079 18.9613H44.118L39.0681 7.41291H36.6778ZM37.8393 10.4433L39.4048 14.1618H36.2738L37.8393 10.4433ZM45.4709 18.9613V7.49481H50.0663C51.9067 7.49481 53.4104 8.0381 54.5775 9.1247C55.7446 10.2113 56.3282 11.5791 56.3282 13.2281C56.3282 14.8662 55.7418 16.2312 54.5691 17.3233C53.3964 18.4153 51.8955 18.9613 50.0663 18.9613H45.4709ZM50.0663 16.6844H48.0631V9.77174H50.0663C51.1212 9.77174 51.9768 10.0939 52.6333 10.7382C53.2898 11.3825 53.618 12.2125 53.618 13.2281C53.618 14.2546 53.2926 15.0873 52.6417 15.7261C51.9909 16.365 51.1324 16.6844 50.0663 16.6844ZM72.5277 17.8392C73.4255 18.7074 74.6767 19.1415 76.2815 19.1415C77.8975 19.1415 79.1627 18.7047 80.0773 17.8311C80.9919 16.9574 81.4492 15.6688 81.4492 13.9652V7.49481H78.8569V14.0635C78.8569 14.959 78.6353 15.6415 78.192 16.1111C77.7487 16.5807 77.1231 16.8154 76.3151 16.8154C75.5072 16.8154 74.8815 16.5725 74.4383 16.0865C73.995 15.6005 73.7734 14.8989 73.7734 13.9816V7.49481H71.1811V14.0471C71.1811 15.707 71.6299 16.9711 72.5277 17.8392ZM82.1518 18.9613L87.2017 7.41291H89.592L94.6419 18.9613H91.9318L90.8544 16.3896H85.8719L84.7946 18.9613H82.1518ZM88.3632 10.4433L89.9286 14.1618H86.7977L88.3632 10.4433ZM95.9947 7.49481H101.381C102.874 7.49481 104.018 7.88249 104.815 8.65785C105.489 9.31308 105.825 10.1976 105.825 11.3115C105.825 13.0697 104.984 14.2546 103.3 14.8661L106.179 18.9613H103.149L100.59 15.292H98.587V18.9613H95.9947V7.49481ZM101.213 13.0643H98.587V9.77174H101.162C101.802 9.77174 102.301 9.91097 102.661 10.1894C103.02 10.4679 103.199 10.8747 103.199 11.4098C103.199 11.9122 103.025 12.3135 102.677 12.6138C102.33 12.9141 101.841 13.0643 101.213 13.0643ZM107.7 7.49481H112.295C114.136 7.49481 115.639 8.0381 116.807 9.1247C117.974 10.2113 118.557 11.5791 118.557 13.2281C118.557 14.8662 117.971 16.2312 116.798 17.3233C115.625 18.4153 114.124 18.9613 112.295 18.9613H107.7V7.49481ZM112.295 16.6844H110.292V9.77174H112.295C113.35 9.77174 114.206 10.0939 114.862 10.7382C115.519 11.3825 115.847 12.2125 115.847 13.2281C115.847 14.2546 115.522 15.0873 114.871 15.7261C114.22 16.365 113.361 16.6844 112.295 16.6844Z" fill="#F3F3F3"/>
<path fill-rule="evenodd" clip-rule="evenodd" d="M13.2555 0C9.11225 0 4.11443 0.932246 4.06506e-06 2.98418C4.06506e-06 7.41582 -0.0567887 18.4564 13.2555 26C26.5681 18.4564 26.5116 7.41582 26.5116 2.98418C22.3969 0.932246 17.3991 0 13.2555 0Z" fill="#68BC71"/>
<path fill-rule="evenodd" clip-rule="evenodd" d="M13.2558 1.5616e-09C13.2557 1.5616e-09 13.2556 0 13.2555 0C9.11225 0 4.11443 0.932246 4.06485e-06 2.98418C4.06485e-06 3.00281 4.06485e-06 3.02156 2.0513e-06 3.04042C-0.000237165 7.50858 -0.000824987 18.4881 13.2555 26C13.2556 25.9999 13.2557 25.9999 13.2558 25.9998V1.5616e-09Z" fill="#67B279"/>
<path fill-rule="evenodd" clip-rule="evenodd" d="M13.1388 16.7143L20.8305 6.7195C20.2669 6.28394 19.7725 6.59135 19.5003 6.82934L19.4904 6.83011L13.0771 13.2623L10.6607 10.4588C9.50796 9.17472 7.9408 10.1542 7.57471 10.413L13.1388 16.7143Z" fill="#F3F3F3"/>
</svg>
